HIERARCHY
ROOT SpineBase
{
  OFFSET 0.000000 0.000000 0.000000
  CHANNELS 6 Xposition Yposition Zposition Zrotation Xrotation Yrotation
  JOINT SpineMid
  {
    OFFSET -0.000000 30.586823 0.000000
    CHANNELS 3 Zrotation Xrotation Yrotation
    JOINT SpineShoulder
    {
      OFFSET -0.072434 22.605084 -0.789504
      CHANNELS 3 Zrotation Xrotation Yrotation
      JOINT Neck
      {
        OFFSET -0.059383 7.465616 -0.623596
        CHANNELS 3 Zrotation Xrotation Yrotation
        JOINT Head
        {
          OFFSET -5.843216 10.610011 3.113466
          CHANNELS 3 Zrotation Xrotation Yrotation
          End Site
          {
            OFFSET 0 0 0
          }
        }
      }
      JOINT ShoulderLeft
      {
        OFFSET -6.905798 -4.331080 13.717737
        CHANNELS 3 Zrotation Xrotation Yrotation
        JOINT ElbowLeft
        {
          OFFSET -4.152485 -23.227445 7.769302
          CHANNELS 3 Zrotation Xrotation Yrotation
          JOINT WristLeft
          {
            OFFSET 1.909549 -26.085450 -8.460689
            CHANNELS 3 Zrotation Xrotation Yrotation
            JOINT HandLeft
            {
              OFFSET -2.324058 -7.797383 2.252700
              CHANNELS 3 Zrotation Xrotation Yrotation
              JOINT HandTipLeft
              {
                OFFSET -1.367050 0.502596 3.396144
                CHANNELS 3 Zrotation Xrotation Yrotation
                End Site
                {
                  OFFSET 0 0 0
                }
              }
              JOINT ThumbLeft
              {
                OFFSET 0.765281 0.635189 -6.359508
                CHANNELS 3 Zrotation Xrotation Yrotation
                End Site
                {
                  OFFSET 0 0 0
                }
              }
            }
          }
        }
      }
      JOINT ShoulderRight
      {
        OFFSET 6.621950 -1.816535 -13.007304
        CHANNELS 3 Zrotation Xrotation Yrotation
        JOINT ElbowRight
        {
          OFFSET 3.110531 -20.259309 -7.094129
          CHANNELS 3 Zrotation Xrotation Yrotation
          JOINT WristRight
          {
            OFFSET -4.116573 -25.562920 -0.626671
            CHANNELS 3 Zrotation Xrotation Yrotation
            JOINT HandRight
            {
              OFFSET -2.272684 -8.847581 0.884363
              CHANNELS 3 Zrotation Xrotation Yrotation
              JOINT HandTipRight
              {
                OFFSET -1.483828 -6.328509 -1.749858
                CHANNELS 3 Zrotation Xrotation Yrotation
                End Site
                {
                  OFFSET 0 0 0
                }
              }
              JOINT ThumbRight
              {
                OFFSET 1.739137 0.832899 -1.756722
                CHANNELS 3 Zrotation Xrotation Yrotation
                End Site
                {
                  OFFSET 0 0 0
                }
              }
            }
          }
        }
      }
    }
  }
  JOINT HipLeft
  {
    OFFSET -3.872325 -0.518113 3.343969
    CHANNELS 3 Zrotation Xrotation Yrotation
    JOINT KneeLeft
    {
      OFFSET 0.416490 -37.854784 9.615084
      CHANNELS 3 Zrotation Xrotation Yrotation
      JOINT AnkleLeft
      {
        OFFSET 3.091918 -31.329423 -3.901196
        CHANNELS 3 Zrotation Xrotation Yrotation
        JOINT FootLeft
        {
          OFFSET -9.233548 -3.843228 -7.692714
          CHANNELS 3 Zrotation Xrotation Yrotation
          End Site
          {
            OFFSET 0 0 0
          }
        }
      }
    }
  }
  JOINT HipRight
  {
    OFFSET 3.393050 2.592576 -10.730067
    CHANNELS 3 Zrotation Xrotation Yrotation
    JOINT KneeRight
    {
      OFFSET 5.722238 -40.379628 3.869371
      CHANNELS 3 Zrotation Xrotation Yrotation
      JOINT AnkleRight
      {
        OFFSET 7.212525 -33.447300 6.416517
        CHANNELS 3 Zrotation Xrotation Yrotation
        JOINT FootRight
        {
          OFFSET -9.420231 -3.793632 -7.647260
          CHANNELS 3 Zrotation Xrotation Yrotation
          End Site
          {
            OFFSET 0 0 0
          }
        }
      }
    }
  }
}
MOTION
Frames: 13
Frame Time: 0.033333
19.631835 89.534308 296.022941 -0.000000 0.000000 62.696069 -0.000000 0.000000 -62.696069 -0.000000 0.000000 0.000000 -0.000000 0.000000 0.000000 0.000000 0.000000 0.000000 -0.000000 0.000000 0.000000 -0.000000 0.000000 0.000000 -0.000000 0.000000 0.000000 -0.000000 0.000000 0.000000 0.000000 0.000000 0.000000 0.000000 0.000000 0.000000 -0.000000 0.000000 0.000000 -0.000000 0.000000 0.000000 -0.000000 0.000000 0.000000 -0.000000 0.000000 0.000000 0.000000 0.000000 0.000000 0.000000 0.000000 0.000000 -0.000000 0.000000 -62.696069 -0.000000 0.000000 0.000000 -0.000000 0.000000 0.000000 0.000000 0.000000 0.000000 -0.000000 0.000000 -62.696069 -0.000000 0.000000 0.000000 -0.000000 0.000000 0.000000 0.000000 0.000000 0.000000
19.517598 89.484859 296.035603 -0.139514 -0.058870 62.574888 0.116512 -0.096720 -62.574861 -0.000000 0.000000 0.000000 -0.000000 0.000000 0.000000 0.000000 0.000000 0.000000 -0.000000 0.000000 0.000000 -0.000000 0.000000 0.000000 -3.004314 -5.770595 0.686435 18.095717 34.701098 -7.300101 0.000000 0.000000 0.000000 0.000000 0.000000 0.000000 -0.000000 0.000000 0.000000 -0.000000 0.000000 0.000000 0.982154 1.000921 -0.168036 -0.014478 -0.972101 -0.106561 0.000000 0.000000 0.000000 0.000000 0.000000 0.000000 0.116512 -0.096720 -62.574861 -0.000000 0.000000 0.000000 -0.000000 0.000000 0.000000 0.000000 0.000000 0.000000 0.116512 -0.096720 -62.574861 -0.000000 0.000000 0.000000 -0.000000 0.000000 0.000000 0.000000 0.000000 0.000000
19.408846 89.438780 296.039633 -0.269288 -0.109005 62.460179 0.221163 -0.188375 -62.460071 -0.000000 0.000000 0.000000 -0.291809 -0.716181 -0.311626 0.000000 0.000000 0.000000 -0.000000 0.000000 0.000000 -0.720563 -0.607720 0.185810 -4.698121 -9.647967 0.846664 72.289981 63.970801 -52.140256 0.000000 0.000000 0.000000 0.000000 0.000000 0.000000 0.722345 0.716637 -0.146967 -0.720561 -0.718431 0.137932 1.714072 1.847097 -0.332609 0.089654 -1.807418 -0.172151 0.000000 0.000000 0.000000 0.000000 0.000000 0.000000 0.221163 -0.188375 -62.460071 -0.000000 0.000000 0.000000 -0.000000 0.000000 0.000000 0.000000 0.000000 0.000000 0.221163 -0.188375 -62.460071 -0.000000 0.000000 0.000000 -0.000000 0.000000 0.000000 0.000000 0.000000 0.000000
19.305577 89.396069 296.035033 -0.389332 -0.150410 62.351472 0.313904 -0.275077 -62.351230 -0.000000 0.000000 0.000000 -0.440193 -0.989450 -0.421515 0.000000 0.000000 0.000000 -0.000000 0.000000 0.000000 -1.174782 -1.061863 0.293529 -5.927113 -12.079815 0.841649 126.533673 59.335740 -100.980294 0.000000 0.000000 0.000000 0.000000 0.000000 0.000000 1.021585 0.958615 -0.218157 -1.018071 -0.962346 0.201061 2.201095 2.544691 -0.486094 0.304034 -2.509589 -0.199543 0.000000 0.000000 0.000000 0.000000 0.000000 0.000000 0.313904 -0.275077 -62.351230 -0.000000 0.000000 0.000000 -0.000000 0.000000 0.000000 0.000000 0.000000 0.000000 0.313904 -0.275077 -62.351230 -0.000000 0.000000 0.000000 -0.000000 0.000000 0.000000 0.000000 0.000000 0.000000
19.207793 89.356726 296.021801 -0.499657 -0.183087 62.248342 0.394689 -0.356931 -62.247911 -0.000000 0.000000 0.000000 -0.590003 -1.207783 -0.501235 0.000000 0.000000 0.000000 -0.000000 0.000000 0.000000 -1.691656 -1.617201 0.408761 -6.243231 -12.550009 0.698538 142.315154 51.970484 -114.025931 0.000000 0.000000 0.000000 0.000000 0.000000 0.000000 1.274237 1.117438 -0.285604 -0.437621 -0.635298 0.174963 1.608475 2.618012 -0.507182 0.621822 -3.082100 -0.191608 0.000000 0.000000 0.000000 0.000000 0.000000 0.000000 0.854777 -1.140905 -62.010794 -0.908177 -0.038368 -0.231407 -0.000000 0.000000 0.000000 0.000000 0.000000 0.000000 0.394689 -0.356931 -62.247911 -0.000000 0.000000 0.000000 -0.000000 0.000000 0.000000 0.000000 0.000000 0.000000
19.115493 89.320752 295.999937 -0.600271 -0.207035 62.150399 0.463476 -0.434029 -62.149728 -0.000000 0.000000 0.000000 -0.741191 -1.372162 -0.550990 0.000000 0.000000 0.000000 -0.000000 0.000000 0.000000 -2.271163 -2.274469 0.529297 -5.496879 -10.770603 0.442240 146.764646 49.377423 -117.441735 0.000000 0.000000 0.000000 0.000000 0.000000 0.000000 1.477218 1.190591 -0.347890 -0.422521 -0.543836 0.202570 1.396097 2.869529 -0.586958 1.037921 -3.527953 -0.151183 0.000000 0.000000 0.000000 0.000000 0.000000 0.000000 1.007732 -1.341303 -61.872324 -1.056670 -0.052281 -0.269454 -0.000000 0.000000 0.000000 0.000000 0.000000 0.000000 1.109488 -1.184542 -62.016980 -0.965836 -0.218354 -0.125464 -0.000000 0.000000 0.000000 0.000000 0.000000 0.000000
19.022293 89.276482 295.963636 -0.699562 -0.219513 62.036277 0.521922 -0.514952 -62.035272 -0.000000 0.000000 0.000000 -0.899573 -1.415094 -0.530712 0.000000 0.000000 0.000000 -0.000000 0.000000 0.000000 -3.160212 -3.240560 0.706460 -1.951201 -3.139710 -0.446076 141.947725 54.701895 -113.744218 0.000000 0.000000 0.000000 0.000000 0.000000 0.000000 1.568608 1.101332 -0.393135 -0.195169 -0.173932 0.194695 0.621401 2.979014 -0.673342 1.373426 -4.156420 0.119656 0.000000 0.000000 0.000000 0.000000 0.000000 0.000000 1.131496 -1.559109 -61.716856 -1.208281 -0.042087 -0.307827 0.024485 0.303826 -0.775304 0.000000 0.000000 0.000000 1.328636 -1.377440 -61.869249 -1.140874 -0.304798 -0.155736 0.039400 0.285111 -0.784226 0.000000 0.000000 0.000000
18.966466 89.265590 295.866067 -0.756335 -0.148645 61.968300 0.486665 -0.597748 -61.966742 -0.000000 0.000000 0.000000 -1.016754 -1.329592 -0.449427 0.000000 0.000000 0.000000 -0.000000 0.000000 0.000000 -4.087932 -4.332116 0.867394 4.512536 9.344679 -2.687531 114.806635 67.606402 -89.801403 0.000000 0.000000 0.000000 0.000000 0.000000 0.000000 1.551140 0.828985 -0.425169 0.094521 0.392116 0.171552 -0.378348 2.416121 -0.605238 2.316054 -3.900187 0.092111 0.000000 0.000000 0.000000 0.000000 0.000000 0.000000 1.058777 -1.721532 -61.635232 -1.260608 0.030426 -0.319596 0.032141 0.352429 -0.906176 0.000000 0.000000 0.000000 1.376385 -1.554262 -61.781730 -1.263402 -0.331747 -0.171961 0.046344 0.332208 -0.914044 0.000000 0.000000 0.000000
18.910076 89.243447 295.807706 -0.818046 -0.134478 61.870649 0.504288 -0.658018 -61.868713 -0.000000 0.000000 0.000000 -1.171649 -1.420666 -0.457375 0.000000 0.000000 0.000000 -0.000000 0.000000 0.000000 -4.895591 -5.388672 0.981572 10.108018 18.566296 -5.341886 87.083636 71.829200 -64.014356 0.000000 0.000000 0.000000 0.000000 0.000000 0.000000 1.655050 0.708761 -0.478897 0.212596 0.737291 0.178786 -1.286780 2.242344 -0.641836 3.478403 -3.823396 0.067233 0.000000 0.000000 0.000000 0.000000 0.000000 0.000000 1.136108 -1.786697 -61.526506 -1.293297 -0.017332 -0.328924 0.041757 0.399129 -1.036313 0.000000 0.000000 0.000000 1.516029 -1.666455 -61.658509 -1.971501 -0.959985 -0.436002 0.653340 0.930187 -0.811791 0.000000 0.000000 0.000000
18.815152 89.219880 295.817732 -0.917499 -0.223946 61.788270 0.631088 -0.702637 -61.786193 -0.757059 -0.327033 -0.067987 -0.534172 -1.141900 -0.379326 0.000000 0.000000 0.000000 0.756683 0.327903 0.063661 -5.518540 -6.363049 1.040433 14.346767 25.024045 -7.884668 64.769981 69.997981 -44.032313 0.000000 0.000000 0.000000 0.000000 0.000000 0.000000 2.512667 0.909784 -0.479155 0.253740 1.020148 0.199635 -1.847586 2.088544 -0.656269 3.908771 -2.835741 -0.149696 0.000000 0.000000 0.000000 0.000000 0.000000 0.000000 1.424160 -1.788993 -61.428439 -1.333230 -0.176974 -0.342569 0.042310 0.426278 -1.101747 0.000000 0.000000 0.000000 1.929952 -1.773232 -61.518822 -2.225695 -1.309235 -0.533131 0.713469 1.086984 -0.837243 0.000000 0.000000 0.000000
18.681803 89.165166 295.918373 -1.037241 -0.413071 61.634867 0.079066 -0.177730 -61.670138 -0.005355 0.034975 -0.042894 -0.552481 -1.118201 -0.362708 0.000000 0.000000 0.000000 0.848106 0.394050 0.071077 -5.698543 -6.890786 1.025137 15.764842 27.589897 -9.009504 71.012617 67.210137 -52.025774 0.000000 0.000000 0.000000 0.000000 0.000000 0.000000 2.665455 0.835568 -0.515349 0.228044 1.200818 0.231325 -2.182270 1.804323 -0.615827 3.931960 -2.519625 -0.150689 0.000000 0.000000 0.000000 0.000000 0.000000 0.000000 1.963573 -1.714151 -61.247292 -1.407116 -0.490910 -0.368501 0.060814 0.479290 -1.264482 0.000000 0.000000 0.000000 2.563193 -1.828203 -61.286423 -2.503986 -1.745869 -0.645637 0.772521 1.244083 -0.968313 0.000000 0.000000 0.000000
18.556925 89.099715 296.063359 -1.132398 -0.638534 61.450360 0.159225 -0.137969 -61.491310 0.021707 0.075352 -0.045202 -0.704292 -1.156307 -0.369123 0.000000 0.000000 0.000000 0.912654 0.490545 0.076252 -5.295423 -6.771125 0.930003 14.096857 27.990079 -8.973059 97.462026 65.474414 -77.320228 0.000000 0.000000 0.000000 0.000000 0.000000 0.000000 2.778429 0.821871 -0.545945 0.204898 1.308685 0.262430 -2.355499 1.560064 -0.567248 4.800591 -3.080238 -0.155217 0.000000 0.000000 0.000000 0.000000 0.000000 0.000000 2.568482 -1.542382 -61.042781 -1.455906 -0.870234 -0.389752 0.094203 0.543109 -1.482643 0.000000 0.000000 0.000000 3.251639 -1.808281 -61.019372 -2.774510 -2.200098 -0.761208 0.847562 1.385998 -1.159824 0.000000 0.000000 0.000000
18.408004 89.047667 296.269761 -1.244261 -0.918600 61.226692 0.243502 -0.113053 -61.274761 0.062792 0.106677 -0.046960 -0.924349 -1.159121 -0.376689 0.000000 0.000000 0.000000 0.964081 0.654390 0.080263 -5.008869 -6.679659 0.862694 13.090111 28.405242 -9.013796 109.231725 60.434570 -89.442781 0.000000 0.000000 0.000000 0.000000 0.000000 0.000000 2.934242 1.007926 -0.582052 0.230896 1.294085 0.289835 -2.793795 1.058407 -0.471116 5.684988 -2.729713 -0.382227 0.000000 0.000000 0.000000 0.000000 0.000000 0.000000 3.384843 -1.413272 -60.764276 -1.634425 -1.355054 -0.448131 0.146945 0.639750 -1.817136 0.000000 0.000000 0.000000 4.114044 -1.787853 -60.692198 -3.169844 -2.764895 -0.919192 0.992756 1.579051 -1.457945 0.000000 0.000000 0.000000
